<svg width="25" height="20" viewBox="0 0 25 20" fill="none" xmlns="http://www.w3.org/2000/svg">
<path d="M23.5339 0.00235704C21.1554 0.13734 16.428 0.628659 13.5095 2.41512C13.3082 2.53838 13.194 2.75757 13.194 2.98673V18.7797C13.194 19.281 13.7422 19.5978 14.2044 19.3652C17.207 17.8539 21.5495 17.4416 23.6966 17.3287C24.4297 17.2901 24.9996 16.7024 24.9996 15.998V1.33482C25 0.566159 24.3333 -0.0427818 23.5339 0.00235704ZM11.49 2.41512C8.57205 0.628659 3.84462 0.137774 1.46615 0.00235704C0.666667 -0.0427818 0 0.566159 0 1.33482V15.9984C0 16.7033 0.569879 17.291 1.30295 17.3292C3.45095 17.442 7.79557 17.8548 10.7982 19.3669C11.2591 19.5991 11.8056 19.2827 11.8056 18.7827V2.97892C11.8056 2.74932 11.6918 2.53882 11.49 2.41512Z" fill="#6F7180"/>
</svg>
