<svg width="24" height="14" viewBox="0 0 24 14" fill="none" xmlns="http://www.w3.org/2000/svg">
<path d="M22.8472 0.94184C23.0078 0.399305 22.8472 0 22.0747 0H19.5182C18.8672 0 18.5677 0.342882 18.4071 0.724826C18.4071 0.724826 17.105 3.89757 15.2648 5.95486C14.6701 6.54948 14.3967 6.74045 14.0712 6.74045C13.9106 6.74045 13.6632 6.54948 13.6632 6.00694V0.94184C13.6632 0.290798 13.4809 0 12.9427 0H8.92361C8.51562 0 8.27257 0.303819 8.27257 0.585938C8.27257 1.20226 9.19271 1.34549 9.28819 3.0816V6.84896C9.28819 7.67361 9.14062 7.82552 8.8151 7.82552C7.94705 7.82552 5.83767 4.63976 4.58767 0.993924C4.33594 0.286458 4.08854 0 3.43316 0H0.876736C0.147569 0 0 0.342882 0 0.724826C0 1.40191 0.868056 4.76563 4.0408 9.21007C6.15451 12.2439 9.13194 13.8889 11.8403 13.8889C13.4679 13.8889 13.6675 13.5243 13.6675 12.895C13.6675 9.99566 13.52 9.72222 14.3359 9.72222C14.7135 9.72222 15.3646 9.91319 16.8837 11.3759C18.6198 13.112 18.9062 13.8889 19.8785 13.8889H22.4349C23.1641 13.8889 23.533 13.5243 23.3203 12.8038C22.8342 11.2891 19.5486 8.17274 19.401 7.96441C19.0234 7.4783 19.1319 7.26128 19.401 6.82726C19.4054 6.82292 22.526 2.43056 22.8472 0.94184Z" fill="white"/>
</svg>
